<svg width="1268" height="673" viewBox="0 0 1268 673" fill="none" xmlns="http://www.w3.org/2000/svg">
<rect x="1228.5" y="629.5" width="13" height="13" stroke="#6C6C6C"/>
<rect x="-0.5" y="0.5" width="13" height="13" transform="matrix(-1 0 0 1 39 630)" stroke="#6C6C6C"/>
<rect x="1207.5" y="609.5" width="13" height="13" stroke="#6C6C6C"/>
<rect x="-0.5" y="0.5" width="13" height="13" transform="matrix(-1 0 0 1 60 610)" stroke="#6C6C6C"/>
<line x1="1240.5" y1="527" x2="1240.5" y2="623" stroke="#6C6C6C"/>
<line x1="1248.5" y1="651" x2="1248.5" y2="527" stroke="#777272"/>
<line x1="1257.5" y1="660" x2="1257.5" y2="527" stroke="#777272"/>
<line y1="-0.5" x2="96" y2="-0.5" transform="matrix(0 1 1 0 28 528)" stroke="#6C6C6C"/>
<line y1="-0.5" x2="124" y2="-0.5" transform="matrix(-3.96888e-08 -1 -1 3.96888e-08 19 652)" stroke="#777272"/>
<line y1="-0.5" x2="133" y2="-0.5" transform="matrix(-3.96888e-08 -1 -1 3.96888e-08 10 661)" stroke="#777272"/>
<line x1="1142" y1="640.5" x2="1221" y2="640.499" stroke="#6C6C6C"/>
<line y1="-0.5" x2="79" y2="-0.5" transform="matrix(-1 -7.87049e-06 -7.87049e-06 1 126 642)" stroke="#6C6C6C"/>
<line x1="1249" y1="650.5" x2="1142" y2="650.5" stroke="#777272"/>
<line y1="-0.5" x2="107" y2="-0.5" transform="matrix(1 -8.74228e-08 -8.74228e-08 -1 19 651)" stroke="#777272"/>
<line x1="1257" y1="659.5" x2="1142" y2="659.5" stroke="#777272"/>
<line y1="-0.5" x2="115" y2="-0.5" transform="matrix(1 0 0 -1 11 660)" stroke="#777272"/>
<line x1="1221" y1="622.5" x2="1240" y2="622.5" stroke="#777272"/>
<line y1="-0.5" x2="19" y2="-0.5" transform="matrix(-1 -2.74846e-09 -2.74846e-09 1 47 624)" stroke="#777272"/>
<line y1="-0.5" x2="19" y2="-0.5" transform="matrix(-0.0084852 0.999964 0.999964 0.0084852 1221.16 622)" stroke="#777272"/>
<rect x="0.5" y="-0.5" width="13" height="13" transform="matrix(1 0 0 -1 1228 40)" stroke="#6C6C6C"/>
<rect x="36.5" y="39.5" width="13" height="13" transform="rotate(180 36.5 39.5)" stroke="#6C6C6C"/>
<rect x="0.5" y="-0.5" width="13" height="13" transform="matrix(1 0 0 -1 1207 60)" stroke="#6C6C6C"/>
<rect x="57.5" y="59.5" width="13" height="13" transform="rotate(180 57.5 59.5)" stroke="#6C6C6C"/>
<line y1="-0.5" x2="96" y2="-0.5" transform="matrix(0 -1 -1 0 1240 143)" stroke="#6C6C6C"/>
<line x1="24.5" y1="142" x2="24.5" y2="46" stroke="#6C6C6C"/>
<line y1="-0.5" x2="124" y2="-0.5" transform="matrix(3.96888e-08 1 1 -3.96888e-08 1249 19)" stroke="#777272"/>
<line x1="16.5" y1="18" x2="16.5" y2="142" stroke="#777272"/>
<line y1="-0.5" x2="133" y2="-0.5" transform="matrix(3.96888e-08 1 1 -3.96888e-08 1258 10)" stroke="#777272"/>
<line x1="7.5" y1="9" x2="7.49999" y2="142" stroke="#777272"/>
<line y1="-0.5" x2="79" y2="-0.5" transform="matrix(1 7.87049e-06 7.87049e-06 -1 1142 29)" stroke="#6C6C6C"/>
<line x1="123" y1="28.5" x2="44" y2="28.5006" stroke="#6C6C6C"/>
<line y1="-0.5" x2="107" y2="-0.5" transform="matrix(-1 8.74228e-08 8.74228e-08 1 1249 20)" stroke="#777272"/>
<line x1="16" y1="18.5" x2="123" y2="18.5" stroke="#777272"/>
<line y1="-0.5" x2="115" y2="-0.5" transform="matrix(-1 0 0 1 1257 11)" stroke="#777272"/>
<line x1="8" y1="9.5" x2="123" y2="9.5" stroke="#777272"/>
<line y1="-0.5" x2="19" y2="-0.5" transform="matrix(1 2.74846e-09 2.74846e-09 -1 1221 47)" stroke="#777272"/>
<line x1="44" y1="46.5" x2="25" y2="46.5" stroke="#777272"/>
<line x1="1220.66" y1="48.0042" x2="1220.5" y2="29.0049" stroke="#777272"/>
<line y1="-0.5" x2="19" y2="-0.5" transform="matrix(0.0084852 -0.999964 -0.999964 -0.0084852 43.8423 47)" stroke="#777272"/>
<line x1="47.3423" y1="622.996" x2="47.5035" y2="641.995" stroke="#777272"/>
<line x1="1267.5" y1="671" x2="1267.5" y2="0.999979" stroke="#777272"/>
<line x1="1268" y1="671.5" x2="0.000359513" y2="672.5" stroke="#777272"/>
<line x1="1268" y1="0.5" x2="0.000359513" y2="1.5" stroke="#777272"/>
<line y1="-0.5" x2="670" y2="-0.5" transform="matrix(4.37114e-08 -1 -1 -4.37114e-08 0 672)" stroke="#777272"/>
</svg>
